<svg width="50" height="51" viewBox="0 0 50 51" fill="none" xmlns="http://www.w3.org/2000/svg">
<path d="M2.13281 2.91602H35C42.1797 2.91602 48 8.73631 48 15.916V49H15.1328C7.95311 49 2.13281 43.1797 2.13281 36V2.91602Z" stroke="#0F4471" stroke-width="4"/>
<path d="M19.1533 18.4865C19.1885 18.5997 19.1776 18.7223 19.1229 18.8274C19.0681 18.9325 18.9741 19.0114 18.8614 19.0469L18.0117 19.314L19.7207 24.7981V17.3706L18.8872 17.6327L19.1533 18.4865Z" fill="#0F4471"/>
<path d="M28.4155 37.5846H23.2847C23.1667 37.5846 23.0534 37.5375 22.9699 37.4537C22.8864 37.3698 22.8395 37.2561 22.8395 37.1375V36.2431H21.949C21.8309 36.2431 21.7177 36.196 21.6342 36.1121C21.5507 36.0283 21.5038 35.9145 21.5038 35.7959V16.1201C21.5038 16.0015 21.5507 15.8877 21.6342 15.8039C21.7177 15.72 21.8309 15.6729 21.949 15.6729H22.8395V14.7785C22.8395 14.6599 22.8864 14.5462 22.9699 14.4623C23.0534 14.3785 23.1667 14.3314 23.2847 14.3314H28.6276C28.7457 14.3314 28.859 14.3785 28.9425 14.4623C29.026 14.5462 29.0729 14.6599 29.0729 14.7785V15.6729H29.9634C30.0815 15.6729 30.1947 15.72 30.2782 15.8039C30.3617 15.8877 30.4086 16.0015 30.4086 16.1201V31.0078L30.6362 31.3242H31.2991V13.437H20.6133V38.479H29.3787C29.0195 38.2252 28.6956 37.9245 28.4155 37.5846Z" fill="#0F4471"/>
<path d="M19.7226 30.7872V27.7921L17.0308 19.1542C17.0134 19.0981 17.007 19.0392 17.0123 18.9807C17.0175 18.9222 17.0341 18.8653 17.0612 18.8133C17.0883 18.7613 17.1253 18.7151 17.1702 18.6774C17.2151 18.6398 17.2669 18.6114 17.3227 18.5938L18.1724 18.3267L17.9063 17.4728C17.871 17.3596 17.882 17.237 17.9367 17.1319C17.9914 17.0268 18.0855 16.9479 18.1982 16.9125L19.7226 16.4331V15.4961L15.3828 16.8604L19.7226 30.7872Z" fill="#0F4471"/>
<path d="M28.1743 27.9022L29.5184 29.7706V16.5676H28.6279C28.5098 16.5676 28.3966 16.5205 28.3131 16.4366C28.2296 16.3528 28.1827 16.239 28.1827 16.1204V15.2261H23.7303V16.1204C23.7303 16.239 23.6834 16.3528 23.5999 16.4366C23.5164 16.5205 23.4031 16.5676 23.285 16.5676H22.3945V35.3491H23.285C23.4031 35.3491 23.5164 35.3962 23.5999 35.4801C23.6834 35.5639 23.7303 35.6777 23.7303 35.7963V36.6906H27.8287C27.4946 36.0367 27.3118 35.3155 27.2938 34.5807L24.4892 30.4119C24.2637 30.0758 24.1331 29.6846 24.1113 29.2799C24.0895 28.8752 24.1773 28.4722 24.3654 28.1136C23.9351 27.7936 23.6105 27.3511 23.4336 26.8436C23.2566 26.336 23.2356 25.7868 23.3732 25.2672C23.5107 24.7475 23.8006 24.2813 24.2051 23.929C24.6096 23.5767 25.1102 23.3546 25.6419 23.2915C26.1736 23.2283 26.7119 23.327 27.1871 23.5748C27.6623 23.8226 28.0524 24.2081 28.3068 24.6812C28.5613 25.1543 28.6684 25.6933 28.6142 26.2283C28.5601 26.7633 28.3471 27.2696 28.003 27.6816C28.0646 27.7515 28.1218 27.8252 28.1743 27.9022Z" fill="#0F4471"/>
<path d="M32.1877 22.8281V31.7717C32.1877 31.8903 32.1408 32.004 32.0573 32.0879C31.9738 32.1718 31.8605 32.2189 31.7424 32.2189H30.4067C30.3362 32.2189 30.2668 32.2021 30.2041 32.1699C30.1413 32.1377 30.0871 32.091 30.0458 32.0336L27.4464 28.4206C27.4437 28.4168 27.4409 28.413 27.4384 28.4091C27.3415 28.2602 27.216 28.1321 27.0694 28.0322C26.9227 27.9324 26.7577 27.8629 26.5841 27.8278C26.4104 27.7926 26.2315 27.7925 26.0578 27.8274C25.8841 27.8624 25.719 27.9317 25.5722 28.0313C25.4254 28.1309 25.2998 28.2589 25.2028 28.4077C25.1057 28.5566 25.0391 28.7233 25.0068 28.8983C24.9745 29.0732 24.9771 29.2529 25.0146 29.4268C25.0521 29.6007 25.1237 29.7654 25.2252 29.9112L28.1134 34.2044C28.1794 34.3026 28.204 34.4231 28.1817 34.5394C28.2049 35.5915 28.637 36.5927 29.3856 37.3289C30.1342 38.0652 31.1399 38.4781 32.1877 38.4794H34.8591V28.1943C34.8589 27.9741 34.805 27.7573 34.702 27.563L32.1877 22.8281Z" fill="#0F4471"/>
<path d="M24.1719 25.9583C24.1719 26.2456 24.2408 26.5286 24.3728 26.7834C24.5048 27.0382 24.6961 27.2573 24.9303 27.4221C24.9797 27.3821 25.0305 27.3436 25.0839 27.3074C25.4051 27.0898 25.7773 26.9601 26.1637 26.9312C26.5501 26.9022 26.9373 26.9751 27.2871 27.1424C27.4781 26.9255 27.6137 26.6653 27.6825 26.3841C27.7512 26.1029 27.7509 25.8092 27.6817 25.5281C27.6125 25.247 27.4763 24.9871 27.285 24.7705C27.0937 24.5539 26.8529 24.3872 26.5832 24.2847C26.3136 24.1823 26.0233 24.147 25.7371 24.1821C25.4509 24.2172 25.1775 24.3215 24.9404 24.4861C24.7032 24.6507 24.5094 24.8707 24.3755 25.1271C24.2417 25.3835 24.1718 25.6688 24.1719 25.9583Z" fill="#0F4471"/>
</svg>
