<svg width="42" height="43" viewBox="0 0 42 43" fill="none" xmlns="http://www.w3.org/2000/svg">
<path d="M1.5 1.5H27C34.4558 1.5 40.5 7.54416 40.5 15V40.66H15C7.54416 40.66 1.5 34.6158 1.5 27.16V1.5Z" stroke="#E02025" stroke-width="3"/>
<g clip-path="url(#clip0_14_1782)">
<path d="M25.5366 29.675L25.2315 30.9272C24.316 31.2899 23.5847 31.566 23.0402 31.7558C22.495 31.9462 21.8616 32.0409 21.1399 32.0409C20.0316 32.0409 19.1696 31.7684 18.5548 31.227C17.94 30.6836 17.6325 29.9949 17.6325 29.1594C17.6325 28.836 17.6548 28.5034 17.7012 28.1644C17.748 27.8251 17.8223 27.4429 17.9241 27.0158L19.0682 22.9509C19.17 22.5617 19.2565 22.1929 19.3258 21.8441C19.3961 21.4975 19.4299 21.1786 19.4299 20.8915C19.4299 20.3724 19.3229 20.0093 19.1097 19.8052C18.8966 19.6016 18.4898 19.4983 17.886 19.4983C17.5902 19.4983 17.2862 19.5458 16.9764 19.6378C16.6651 19.7301 16.3991 19.8193 16.1758 19.9022L16.4817 18.6491C17.2312 18.3427 17.9476 18.0804 18.6329 17.8627C19.3182 17.6444 19.9657 17.5352 20.5782 17.5352C21.6788 17.5352 22.5281 17.8022 23.1245 18.3362C23.7209 18.8707 24.0191 19.5635 24.0191 20.4172C24.0191 20.5939 23.9995 20.9051 23.9574 21.3499C23.9163 21.7958 23.8398 22.2043 23.7282 22.5758L22.589 26.6244C22.4956 26.9496 22.4116 27.3213 22.3386 27.7396C22.2633 28.1552 22.2273 28.4727 22.2273 28.6857C22.2273 29.2233 22.3467 29.5903 22.586 29.7854C22.8272 29.9805 23.2426 30.0776 23.8325 30.0776C24.1095 30.0776 24.4246 30.0283 24.7748 29.9314C25.124 29.8345 25.3787 29.7495 25.5366 29.675ZM25.8255 12.6779C25.8255 13.3833 25.5607 13.9857 25.0285 14.481C24.4976 14.9781 23.858 15.2269 23.1097 15.2269C22.359 15.2269 21.7177 14.9781 21.1808 14.481C20.6449 13.9855 20.3763 13.3833 20.3763 12.6779C20.3763 11.9739 20.6449 11.3705 21.1808 10.8688C21.7168 10.368 22.3592 10.1177 23.1097 10.1177C23.8578 10.1177 24.4976 10.3686 25.0285 10.8688C25.5611 11.3705 25.8255 11.9741 25.8255 12.6779Z" fill="#E02025"/>
</g>
<defs>
<clipPath id="clip0_14_1782">
<rect width="21.84" height="21.9232" fill="white" transform="translate(10.0781 10.1177)"/>
</clipPath>
</defs>
</svg>
