<svg width="50" height="51" viewBox="0 0 50 51" fill="none" xmlns="http://www.w3.org/2000/svg">
<path d="M2.13281 2.91602H35C42.1797 2.91602 48 8.73631 48 15.916V49H15.1328C7.95311 49 2.13281 43.1797 2.13281 36V2.91602Z" stroke="#E02025" stroke-width="4"/>
<path d="M19.1572 18.4865C19.1924 18.5997 19.1815 18.7223 19.1268 18.8274C19.072 18.9325 18.978 19.0114 18.8653 19.0469L18.0156 19.314L19.7246 24.7981V17.3706L18.8911 17.6327L19.1572 18.4865Z" fill="#E02025"/>
<path d="M28.4195 37.5849H23.2886C23.1706 37.5849 23.0573 37.5378 22.9738 37.4539C22.8903 37.3701 22.8434 37.2563 22.8434 37.1377V36.2434H21.9529C21.8348 36.2434 21.7216 36.1962 21.6381 36.1124C21.5546 36.0285 21.5077 35.9148 21.5077 35.7962V16.1203C21.5077 16.0017 21.5546 15.888 21.6381 15.8041C21.7216 15.7203 21.8348 15.6731 21.9529 15.6731H22.8434V14.7788C22.8434 14.6602 22.8903 14.5465 22.9738 14.4626C23.0573 14.3787 23.1706 14.3316 23.2886 14.3316H28.6316C28.7496 14.3316 28.8629 14.3787 28.9464 14.4626C29.0299 14.5465 29.0768 14.6602 29.0768 14.7788V15.6731H29.9673C30.0854 15.6731 30.1986 15.7203 30.2821 15.8041C30.3656 15.888 30.4125 16.0017 30.4125 16.1203V31.0081L30.6401 31.3244H31.303V13.4373H20.6172V38.4792H29.3826C29.0234 38.2255 28.6995 37.9247 28.4195 37.5849Z" fill="#E02025"/>
<path d="M19.7265 30.7874V27.7923L17.0347 19.1544C17.0173 19.0984 17.0109 19.0394 17.0162 18.9809C17.0214 18.9225 17.038 18.8656 17.0651 18.8135C17.0922 18.7615 17.1292 18.7153 17.1741 18.6777C17.219 18.64 17.2708 18.6116 17.3266 18.5941L18.1763 18.3269L17.9102 17.473C17.8749 17.3599 17.8859 17.2372 17.9406 17.1322C17.9954 17.0271 18.0894 16.9481 18.2021 16.9127L19.7265 16.4333V15.4963L15.3867 16.8607L19.7265 30.7874Z" fill="#E02025"/>
<path d="M28.1782 27.902L29.5223 29.7703V16.5674H28.6318C28.5138 16.5674 28.4005 16.5203 28.317 16.4364C28.2335 16.3525 28.1866 16.2388 28.1866 16.1202V15.2258H23.7342V16.1202C23.7342 16.2388 23.6873 16.3525 23.6038 16.4364C23.5203 16.5203 23.407 16.5674 23.2889 16.5674H22.3984V35.3489H23.2889C23.407 35.3489 23.5203 35.396 23.6038 35.4798C23.6873 35.5637 23.7342 35.6774 23.7342 35.796V36.6904H27.8326C27.4985 36.0365 27.3157 35.3153 27.2977 34.5805L24.4931 30.4117C24.2676 30.0756 24.137 29.6844 24.1152 29.2797C24.0934 28.875 24.1812 28.4719 24.3693 28.1133C23.939 27.7933 23.6144 27.3509 23.4375 26.8433C23.2606 26.3358 23.2395 25.7866 23.3771 25.2669C23.5147 24.7472 23.8045 24.281 24.209 23.9288C24.6135 23.5765 25.1141 23.3544 25.6458 23.2912C26.1775 23.2281 26.7158 23.3268 27.191 23.5746C27.6662 23.8224 28.0563 24.2078 28.3108 24.681C28.5652 25.1541 28.6723 25.6931 28.6181 26.228C28.564 26.763 28.351 27.2693 28.0069 27.6813C28.0685 27.7512 28.1257 27.8249 28.1782 27.902Z" fill="#E02025"/>
<path d="M32.1916 22.8279V31.7714C32.1916 31.89 32.1447 32.0038 32.0612 32.0877C31.9777 32.1715 31.8644 32.2186 31.7463 32.2186H30.4106C30.3402 32.2186 30.2707 32.2018 30.208 32.1696C30.1452 32.1374 30.091 32.0907 30.0497 32.0334L27.4503 28.4204C27.4476 28.4166 27.4448 28.4127 27.4423 28.4089C27.3454 28.2599 27.22 28.1318 27.0733 28.032C26.9266 27.9322 26.7617 27.8627 26.588 27.8275C26.4143 27.7923 26.2354 27.7922 26.0617 27.8272C25.888 27.8621 25.7229 27.9314 25.5761 28.031C25.4293 28.1307 25.3038 28.2586 25.2067 28.4075C25.1096 28.5563 25.043 28.7231 25.0107 28.898C24.9784 29.073 24.981 29.2526 25.0185 29.4265C25.056 29.6004 25.1276 29.7651 25.2291 29.911L28.1173 34.2042C28.1833 34.3023 28.2079 34.4228 28.1856 34.5392C28.2088 35.5913 28.6409 36.5924 29.3895 37.3287C30.1381 38.0649 31.1438 38.4778 32.1916 38.4791H34.863V28.194C34.8628 27.9739 34.8089 27.7571 34.7059 27.5627L32.1916 22.8279Z" fill="#E02025"/>
<path d="M24.1758 25.9583C24.1758 26.2456 24.2447 26.5286 24.3767 26.7834C24.5087 27.0382 24.7 27.2573 24.9342 27.4221C24.9836 27.3821 25.0344 27.3436 25.0878 27.3074C25.409 27.0898 25.7812 26.9601 26.1676 26.9312C26.554 26.9022 26.9412 26.9751 27.291 27.1424C27.482 26.9255 27.6176 26.6653 27.6864 26.3841C27.7551 26.1029 27.7548 25.8092 27.6856 25.5281C27.6164 25.247 27.4802 24.9871 27.2889 24.7705C27.0976 24.5539 26.8568 24.3872 26.5871 24.2847C26.3175 24.1823 26.0272 24.147 25.741 24.1821C25.4548 24.2172 25.1814 24.3215 24.9443 24.4861C24.7071 24.6507 24.5133 24.8707 24.3794 25.1271C24.2456 25.3835 24.1757 25.6688 24.1758 25.9583Z" fill="#E02025"/>
</svg>
